<svg xmlns="http://www.w3.org/2000/svg" xmlns:xlink="http://www.w3.org/1999/xlink" version="1.1" id="Your_Icon" x="0px" y="0px" width="100px" height="100px" viewBox="0 0 100 100" enable-background="new 0 0 100 100" xml:space="preserve">
<g id="Shape_1_copy">
	<g>
		<path fill="white" d="M81.001,56.001l-3.665,7.182l-17.868-7.831l-11.73-28.889l-8.649-6.042l-21.905,0.395l-5.324,13.67l-5.158-2.261    l-1.646,3.971l5.243,2.298l-1.411,3.624l7.188,2.623l1.424-3.091l5.841,2.56l-3.038,6.836L17.25,71.367L5.624,84.146l7.38,6.904    l13.652-14.793L29.42,61.77L41.367,73.62l-0.195,20.788L51.196,95l0.275-24.764L38.206,55.54l1.561-4.132l11.102,4.865    l1.686,4.235l4.072-1.711l18.754,8.219l-3.969,7.778c0,0,17.847,5.386,23.521-1.787C95.423,64.693,81.001,56.001,81.001,56.001z     M25.085,40.281l-5.788-2.537l4.191-9.099l6.663,0.237L25.085,40.281z M41.287,47.382l2.941-7.787l4.377,10.994L41.287,47.382z     M49.131,22.772c4.908,0,8.885-3.977,8.885-8.885C58.017,8.98,54.039,5,49.131,5c-4.908,0-8.886,3.98-8.886,8.888    C40.245,18.795,44.223,22.772,49.131,22.772z"/>
	</g>
</g>
</svg>